<?xml version="1.0" encoding="utf-8"?>
<!-- Made by Tyler Brooks: Tyler Brooks -->
<svg width="800px" height="800px" viewBox="0 0 32 32" xmlns="http://www.w3.org/2000/svg" xmlns:xlink="http://www.w3.org/1999/xlink">
  <defs>
    <clipPath id="clip-network">
      <rect width="32" height="32"/>
    </clipPath>
  </defs>
  <g id="network" clip-path="url(#clip-network)">
    <g id="Group_1715" data-name="Group 1715" transform="translate(-260 -468)">
      <g id="Group_1714" data-name="Group 1714">
        <g id="Group_1713" data-name="Group 1713">
          <g id="Group_1712" data-name="Group 1712">
            <g id="Group_1711" data-name="Group 1711">
              <g id="Group_1710" data-name="Group 1710">
                <g id="Group_1709" data-name="Group 1709">
                  <g id="Group_1708" data-name="Group 1708">
                    <g id="Group_1707" data-name="Group 1707">
                      <g id="Group_1706" data-name="Group 1706">
                        <g id="Group_1705" data-name="Group 1705">
                          <g id="Group_1704" data-name="Group 1704">
                            <g id="Group_1703" data-name="Group 1703">
                              <path id="Path_3713" data-name="Path 3713" d="M287.551,470.781a3.113,3.113,0,0,0-2.293,5.231l-5.192,4.675a5.013,5.013,0,0,0-6.364-.033l-4.171-4.177a2.655,2.655,0,0,0,.395-1.383,2.688,2.688,0,1,0-2.687,2.687,2.66,2.66,0,0,0,1.622-.559l4.12,4.127a5.081,5.081,0,0,0-1.242,3.307c0,.115.026.222.034.335l-5.565.721a2.55,2.55,0,1,0,.241,1.069c0-.031-.008-.059-.009-.09l5.494-.712A5.086,5.086,0,0,0,273,487.987l-3.733,4a2.776,2.776,0,0,0-1.4-.39,2.813,2.813,0,1,0,2.812,2.812,2.783,2.783,0,0,0-.647-1.772l3.7-3.956a4.977,4.977,0,0,0,5.543.476l2.972,2.934a3,3,0,1,0,.789-.625l-2.915-2.878a5.037,5.037,0,0,0,.666-7.195l5.281-4.754a3.086,3.086,0,0,0,1.49.4,3.125,3.125,0,0,0,0-6.25Zm-23.665,17.563a1.563,1.563,0,1,1,1.563-1.563A1.564,1.564,0,0,1,263.886,488.344Zm22.478,5.687a1.938,1.938,0,1,1-1.938-1.937A1.94,1.94,0,0,1,286.364,494.031Zm-19.125-17.25a1.688,1.688,0,1,1,1.687-1.687A1.689,1.689,0,0,1,267.239,476.781Zm.625,19.438a1.813,1.813,0,1,1,1.812-1.813A1.815,1.815,0,0,1,267.864,496.219Zm5.875-11.563a3.125,3.125,0,1,1,3.125,3.125A3.129,3.129,0,0,1,273.739,484.656Zm13.812-8.625a2.125,2.125,0,1,1,2.125-2.125A2.127,2.127,0,0,1,287.551,476.031Z" fill="#344952"/>
                            </g>
                          </g>
                        </g>
                      </g>
                    </g>
                  </g>
                </g>
              </g>
            </g>
          </g>
        </g>
      </g>
    </g>
  </g>
</svg>