<svg width="100%" height="100%" viewBox="0 0 800 800" xmlns="http://www.w3.org/2000/svg" opacity="0.05">
  <defs>
    <pattern id="grid" width="100" height="100" patternUnits="userSpaceOnUse">
      <circle cx="50" cy="50" r="2" fill="#075E54"/>
      <path d="M50 50 L150 50 M50 50 L50 150" stroke="#075E54" stroke-width="0.5"/>
      <circle cx="0" cy="0" r="1" fill="#128C7E"/>
      <circle cx="100" cy="0" r="1" fill="#128C7E"/>
      <circle cx="0" cy="100" r="1" fill="#128C7E"/>
      <circle cx="100" cy="100" r="1" fill="#128C7E"/>
    </pattern>
  </defs>
  <rect width="100%" height="100%" fill="url(#grid)" />
  
  <!-- Abstract Connection Nodes -->
  <g stroke="#075E54" stroke-width="1" fill="none" opacity="0.3">
    <circle cx="100" cy="100" r="30" />
    <circle cx="700" cy="700" r="50" />
    <circle cx="700" cy="100" r="20" />
    <circle cx="100" cy="700" r="40" />
    <circle cx="400" cy="400" r="60" />
    
    <path d="M130 100 L340 400" />
    <path d="M650 700 L460 400" />
    <path d="M680 100 L440 360" />
    <path d="M140 700 L360 440" />
  </g>
</svg>
